# xmcd
#
# Track frame offsets: 
#        150
#        20389
#        39178
#        64200
#        93300
#        111265
#        133357
#        147159
#        171271
#        190953
#        206748
#
# Disc length: 3095 seconds
#
# Revision: 0
# Processed by: cddbd v1.5.2PL0 Copyright (c) Steve Scherf et al.
# Submitted via: ExactAudioCopy v0.99pb1
#
DISCID=a00c150b
DTITLE=RAZA - TRADITIONAL
DYEAR=2006
DGENRE=Native American
TTITLE0=Vagabundo - Vagabundo
TTITLE1=Madona - Madona
TTITLE2=Irlandes - Irlandes
TTITLE3=Hotel - California
TTITLE4=San Juan Violin - San Juan Violin
TTITLE5=Charijayac - Charijayac
TTITLE6=Ojos - Azules
TTITLE7=Okarina  1 - Okarina  1
TTITLE8=Ponchito - Ponchito
TTITLE9=Okarina  2 - Okarina  2
TTITLE10=Sa - Sa
EXTD=
EXTT0=
EXTT1=
EXTT2=
EXTT3=
EXTT4=
EXTT5=
EXTT6=
EXTT7=
EXTT8=
EXTT9=
EXTT10=
PLAYORDER=
